# xmcd
#
# Track frame offsets:
#	150
#	19328
#	43512
#	66616
#	90163
#	109999
#	128803
#	147617
#	169251
#
# Disc length: 2435 seconds
#
# Revision: 0
# Processed by: cddbd v1.5.2PL0 Copyright (c) Steve Scherf et al.
# Submitted via: audiograbber 1.83.01
#
DISCID=82098109
DTITLE=The Four Seasons - Helicon
DYEAR=1977
DGENRE=Rock
TTITLE0=If We Should Lose Our Love
TTITLE1=Let's Get It Right
TTITLE2=Long Ago
TTITLE3=Rhapsody
TTITLE4=Helicon
TTITLE5=Down The Hall
TTITLE6=Put A Little Away
TTITLE7=New York Street Song (No Easy Way)
TTITLE8=I Believe In You
EXTD=
EXTT0=
EXTT1=
EXTT2=
EXTT3=
EXTT4=
EXTT5=
EXTT6=
EXTT7=
EXTT8=
PLAYORDER=
